# xmcd
#
# Track frame offsets:
#	150
#	14190
#	30687
#	48427
#	68022
#	84495
#	99435
#	116979
#	129460
#	145732
#	164040
#	178080
#	194580
#	212317
#	231915
#	248385
#	263327
#	280872
#	293352
#	309622
#
# Disc length: 4372 seconds
#
# Revision: 2
# Processed by: cddbd v1.5.2PL0 Copyright (c) Steve Scherf et al.
# Submitted via: audiograbber 1.82.02
#
DISCID=1c111214
DTITLE=Various Artist - THMC0604
DYEAR=2006
DGENRE=Karaoke
TTITLE0=Toby Keith - Get Drunk And Be Somebody (W Vocals)
TTITLE1=Rascal Flatts - What Hurts The Most (W Vocals)
TTITLE2=LeAnn Rimes - Something's Gotta Give (W Vocals)
TTITLE3=Keith Anderson - Every Time I Hear Your Name (W Vocals)
TTITLE4=Rodney Atkins - If You're Going Though Hell (Before The Devil Even Know
TTITLE4=s) (W Vocals)
TTITLE5=Susan Hayes - Drinkin' In My Sunday Dress (W Vocals)
TTITLE6=Craig Morgan - I Got You (W Vocals)
TTITLE7=Joe Nichols - Size Matters (W Vocals)
TTITLE8=Shannon Brown - Corn Fed (W Vocals)
TTITLE9=Martina McBride - Help Me Make It Through The Night (Vocals)
TTITLE10=Toby Keith - Get Drunk And Be Somebody
TTITLE11=Rascal Flatts - What Hurts The Most
TTITLE12=LeAnn Rimes - Something's Gotta Give
TTITLE13=Keith Anderson - Every Time I Hear Your Name
TTITLE14=Rodney Atkins - If You're Going Though Hell (Before The Devil Even Kno
TTITLE14=ws)
TTITLE15=Susan Hayes - Drinkin' In My Sunday Dress
TTITLE16=Craig Morgan - I Got You
TTITLE17=Joe Nichols - Size Matters
TTITLE18=Shannon Brown - Corn Fed
TTITLE19=Martina McBride - Help Me Make It Through The Night
EXTD=
EXTT0=
EXTT1=
EXTT2=
EXTT3=
EXTT4=
EXTT5=
EXTT6=
EXTT7=
EXTT8=
EXTT9=
EXTT10=
EXTT11=
EXTT12=
EXTT13=
EXTT14=
EXTT15=
EXTT16=
EXTT17=
EXTT18=
EXTT19=
PLAYORDER=
